<svg id="Group_1" data-name="Group 1" xmlns="http://www.w3.org/2000/svg" width="87" height="87" viewBox="0 0 87 87">
  <g id="Ellipse_1" data-name="Ellipse 1" stroke="rgba(93,89,183,0.82)" stroke-width="4">
    <circle cx="43.5" cy="43.5" r="43.5" stroke="none"/>
    <circle cx="43.5" cy="43.5" r="41.5" fill="none"/>
  </g>
  <g id="Polygon_1" data-name="Polygon 1" transform="translate(76.944 18.266) rotate(90)" fill="rgba(0,0,0,0.82)">
    <path d="M21.917,4.5a3,3,0,0,1,5.2,0L46.436,38a3,3,0,0,1-2.6,4.5H5.194A3,3,0,0,1,2.6,38Z" stroke="none"/>
    <path d="M 24.51598167419434 8.004436492919922 L 6.925636291503906 38.4943733215332 L 42.10633087158203 38.4943733215332 L 24.51598167419434 8.004436492919922 M 24.51598358154297 3.003330230712891 C 25.52664184570312 3.003330230712891 26.53729820251465 3.503608703613281 27.11454391479492 4.504165649414062 L 46.43629455566406 37.99520492553711 C 47.59014511108398 39.99520492553711 46.14671325683594 42.4943733215332 43.83774566650391 42.4943733215332 L 5.194225311279297 42.4943733215332 C 2.88525390625 42.4943733215332 1.441822052001953 39.99520492553711 2.595672607421875 37.99520492553711 L 21.91742324829102 4.504165649414062 C 22.49466896057129 3.503608703613281 23.50532531738281 3.003330230712891 24.51598358154297 3.003330230712891 Z" stroke="none" fill="rgba(93,89,183,0.82)"/>
  </g>
  <line id="Line_1" data-name="Line 1" y1="44.946" transform="translate(28.72 20.817)" fill="none" stroke="rgba(93,89,183,0.82)" stroke-width="4"/>
</svg>
